<?xml version="1.0" standalone="no"?>
<!DOCTYPE svg PUBLIC "-//W3C//DTD SVG 20010904//EN"
 "http://www.w3.org/TR/2001/REC-SVG-20010904/DTD/svg10.dtd">
<svg version="1.0" xmlns="http://www.w3.org/2000/svg"
 width="448.055518pt" height="743.615556pt" viewBox="0 0 448.055518 743.615556"
 preserveAspectRatio="xMidYMid meet">
<metadata>
Created by potrace 1.12, written by Peter Selinger 2001-2015
</metadata>
<g transform="translate(0.000000,743.615556) scale(0.100000,-0.100000)"
fill="#000000" stroke="none">
<path d="M2243 7411 c-18 -17 -44 -58 -58 -93 -15 -35 -36 -83 -48 -108 -12
-25 -29 -79 -38 -120 -30 -133 -67 -267 -83 -298 -9 -17 -16 -41 -16 -54 0
-13 -7 -32 -15 -42 -8 -11 -15 -27 -15 -36 0 -9 -8 -34 -19 -56 -10 -21 -21
-53 -24 -71 -4 -17 -15 -51 -25 -75 -25 -56 -102 -298 -102 -318 0 -9 -4 -20
-9 -25 -5 -6 -11 -23 -13 -40 -2 -20 -11 -33 -25 -40 -18 -7 -23 -18 -23 -45
0 -19 -8 -57 -19 -85 -30 -81 -41 -115 -67 -205 -24 -86 -24 -87 -8 -260 10
-105 11 -162 1 -209 -8 -42 -16 -55 -43 -72 -32 -20 -52 -26 -81 -28 -7 -1
-13 -7 -13 -15 0 -8 -10 -18 -23 -23 -13 -4 -50 -37 -82 -73 -34 -37 -70 -67
-85 -70 -15 -3 -31 -17 -40 -36 -16 -32 -22 -41 -82 -108 -88 -100 -106 -122
-113 -146 -4 -14 -26 -45 -50 -70 -23 -25 -48 -62 -54 -82 -7 -20 -18 -41 -25
-47 -16 -13 -21 -8 -62 66 -16 29 -35 53 -41 53 -7 0 -20 15 -29 33 -9 17 -36
54 -59 80 -24 28 -50 71 -59 100 -21 64 -79 127 -117 127 -15 0 -29 -7 -33
-15 -3 -8 -16 -15 -28 -15 -40 0 -68 -27 -68 -66 0 -27 11 -48 55 -99 30 -36
69 -89 85 -119 17 -29 40 -62 51 -72 11 -10 29 -37 40 -59 10 -22 42 -65 69
-95 28 -30 57 -66 64 -80 20 -38 29 -87 17 -95 -6 -3 -11 -16 -11 -29 0 -12
-4 -26 -8 -31 -5 -6 -15 -43 -21 -83 -7 -40 -20 -87 -28 -103 -9 -17 -18 -61
-21 -98 -2 -36 -9 -71 -14 -78 -5 -6 -11 -51 -13 -98 -3 -60 -8 -92 -19 -104
-12 -13 -14 -30 -9 -72 7 -53 7 -79 2 -182 -1 -42 5 -67 34 -129 19 -42 47
-92 61 -111 14 -19 26 -37 26 -41 0 -5 9 -21 21 -37 11 -16 17 -34 13 -40 -3
-6 -8 -30 -10 -52 -9 -111 -14 -140 -23 -150 -5 -7 -10 -46 -12 -87 -1 -41 -7
-81 -12 -87 -5 -7 -7 -19 -4 -26 3 -7 -1 -21 -9 -32 -8 -10 -11 -29 -8 -42 4
-13 2 -29 -4 -36 -13 -16 0 -127 22 -185 9 -24 14 -48 10 -53 -3 -6 2 -19 11
-29 16 -18 39 -100 27 -100 -3 0 -10 7 -17 17 -7 9 -17 13 -24 9 -7 -5 -9 -12
-3 -19 5 -7 15 -41 21 -77 7 -36 15 -75 17 -88 7 -36 24 -15 24 31 0 52 20 37
22 -17 1 -27 -4 -41 -17 -48 -9 -6 -13 -13 -8 -17 21 -14 -24 -237 -52 -257
-9 -7 -22 -35 -29 -62 -11 -41 -11 -63 0 -128 13 -72 35 -117 50 -101 4 3 1
26 -5 51 -14 57 -15 118 -1 96 5 -8 10 -28 10 -43 0 -48 72 -167 100 -167 7 0
27 -12 45 -27 18 -16 51 -43 74 -62 22 -19 38 -38 35 -43 -3 -5 2 -25 11 -45
17 -35 17 -37 0 -49 -15 -11 -23 -10 -47 2 -38 20 -53 8 -54 -43 -1 -22 -8
-39 -18 -45 -30 -17 -19 -54 29 -94 l46 -39 1 -75 c0 -45 6 -84 14 -97 8 -12
14 -39 14 -58 0 -20 4 -44 9 -53 5 -10 11 -49 14 -87 4 -59 8 -71 27 -79 16
-7 24 -6 30 5 7 11 14 11 27 3 14 -9 19 -27 21 -84 3 -63 0 -75 -18 -92 -12
-11 -22 -18 -23 -17 -2 2 -11 29 -21 59 -33 102 -47 123 -86 127 -51 5 -57 8
-63 41 -4 21 -15 34 -37 43 -21 10 -30 21 -30 37 0 31 -95 78 -119 59 -12 -10
-14 -8 -8 12 3 13 1 34 -4 48 -7 20 -15 24 -42 23 -108 -6 -140 9 -67 31 78
23 22 47 -111 48 -89 1 -189 12 -189 21 0 4 19 10 41 13 55 7 63 23 37 69 -12
21 -18 41 -14 45 21 21 376 -6 376 -28 0 -5 -9 -9 -19 -9 -20 0 -37 -17 -27
-27 3 -3 26 -5 51 -5 38 1 45 -2 43 -16 -2 -14 5 -17 38 -17 25 -1 52 -9 71
-23 65 -46 66 -19 5 83 -19 33 -48 76 -64 97 l-28 36 -215 -3 c-118 -2 -220
-7 -226 -11 -13 -8 -85 -17 -279 -34 -180 -17 -166 -11 -168 -70 -1 -50 -1
-50 32 -50 17 0 36 4 42 10 8 8 112 13 267 11 54 0 62 -15 15 -30 -44 -13
-167 -31 -217 -31 -22 0 -63 -5 -91 -11 -39 -8 -50 -15 -48 -27 3 -13 13 -16
38 -15 209 13 332 -14 148 -32 -46 -5 -68 -11 -68 -20 0 -22 37 -28 179 -29
90 -1 136 -5 138 -12 7 -21 -32 -25 -234 -25 l-203 0 0 -24 c0 -28 2 -28 96
-25 55 1 62 -1 67 -19 5 -21 9 -21 212 -17 114 3 213 2 221 -1 22 -8 16 -25
-6 -18 -11 4 -20 2 -20 -4 0 -6 -19 -11 -43 -11 -46 0 -69 -14 -60 -37 5 -12
-13 -14 -122 -9 -70 3 -150 12 -178 20 -29 7 -67 12 -84 11 -18 -1 -44 -3 -58
-4 -22 -1 -25 -5 -25 -40 0 -39 1 -40 42 -48 49 -10 60 -29 23 -43 -56 -21
-11 -30 160 -30 130 0 174 -3 177 -12 4 -10 14 -8 41 6 34 19 38 19 124 3 48
-10 96 -17 106 -17 9 0 17 -4 17 -8 0 -12 -283 -10 -291 2 -4 4 -22 4 -40 -2
-19 -6 -46 -13 -61 -16 -19 -4 -28 -13 -28 -26 0 -25 12 -32 74 -37 28 -3 55
-9 61 -14 6 -6 -2 -8 -20 -4 -81 13 -168 13 -200 -1 -19 -8 -61 -14 -94 -14
-78 0 -91 -6 -91 -41 l0 -29 133 -1 c72 -1 143 -3 157 -4 14 -2 117 -6 230
-10 165 -5 223 -4 300 9 100 17 297 21 366 7 24 -4 49 -4 58 1 9 5 22 6 28 2
7 -4 44 -9 82 -10 39 -1 87 -9 106 -17 25 -11 67 -14 150 -13 75 2 122 -2 135
-10 22 -13 127 -25 120 -14 -6 10 19 20 48 20 41 0 51 14 34 46 -8 16 -18 37
-21 46 -6 19 -69 50 -103 50 -13 0 -23 6 -23 13 0 12 -41 35 -64 35 -7 0 -18
11 -25 24 -7 13 -23 28 -36 34 -13 6 -25 23 -28 39 -4 22 1 33 23 54 23 21 41
27 101 32 41 4 117 16 169 27 52 12 120 23 150 25 30 2 58 3 63 4 4 1 7 8 7
17 0 21 -105 17 -186 -7 -55 -17 -68 -18 -113 -6 -27 7 -71 13 -97 12 -47 0
-54 -5 -69 -50 -7 -19 -8 -19 -16 4 -5 14 -9 32 -8 40 1 9 -1 24 -4 33 -15 39
-16 48 -7 53 6 4 10 0 10 -7 0 -8 7 -23 16 -34 14 -18 15 -14 9 49 -5 65 -5
68 14 58 31 -17 40 -13 55 24 17 40 30 44 48 15 7 -11 18 -20 25 -20 17 0 26
55 13 80 -6 12 -9 24 -7 27 3 3 63 7 134 9 70 2 155 8 187 14 32 5 63 7 68 4
19 -12 221 -18 458 -14 191 3 250 -2 250 -21 0 -5 28 -67 63 -138 104 -215
110 -229 103 -261 -10 -53 -1 -60 68 -55 33 3 147 7 251 9 105 3 211 8 238 12
42 6 47 9 41 28 -3 12 -27 40 -52 64 -25 23 -43 42 -39 42 3 0 37 -17 74 -37
54 -30 63 -39 45 -41 -29 -4 -20 -19 24 -37 20 -8 33 -18 30 -23 -8 -13 11
-35 23 -28 6 4 11 14 11 23 0 14 12 15 98 8 143 -12 167 -12 164 3 -2 11 43
19 73 12 38 -8 96 -13 203 -17 l122 -5 0 85 c0 83 0 85 -26 90 -14 2 -154 5
-311 6 -157 1 -290 4 -296 8 -6 4 -33 8 -59 9 -47 2 -108 22 -108 35 0 9 758
-6 768 -16 16 -15 32 -2 32 26 0 27 -3 31 -21 26 -28 -7 -79 3 -79 15 0 5 13
7 30 3 39 -9 70 2 70 25 0 16 -13 19 -117 25 -135 8 -163 8 -253 7 -72 -2
-136 2 -223 13 -74 10 -61 27 19 26 33 0 173 -1 312 -1 234 -2 275 1 260 15
-3 4 -104 8 -224 10 -121 2 -235 5 -254 8 -19 3 -70 7 -114 11 -75 5 -95 10
-84 21 8 9 513 1 626 -10 l52 -5 0 49 0 48 -57 7 c-32 4 -113 9 -181 12 -68 3
-163 13 -210 23 -82 17 -167 18 -177 1 -2 -4 26 -18 64 -30 88 -30 77 -46 -33
-43 -44 0 -103 2 -130 2 -43 1 -47 3 -35 17 11 13 26 15 76 11 35 -2 66 -1 69
4 10 17 -66 37 -162 43 -55 3 -129 9 -166 12 l-68 6 0 -32 c0 -23 5 -33 20
-37 29 -8 25 -23 -6 -23 -18 0 -28 -6 -31 -20 -11 -42 -28 -12 -31 56 -2 46
-8 74 -19 87 -22 23 -6 40 39 41 29 1 36 7 59 51 31 60 34 97 9 120 -17 15
-17 17 1 53 35 67 100 158 155 214 19 21 47 55 61 75 14 21 45 56 69 79 24 22
44 49 44 60 0 18 122 181 162 216 11 9 17 22 13 28 -4 7 2 18 14 26 12 8 21
21 21 28 0 8 7 19 15 26 8 7 14 18 13 24 -4 19 34 121 48 129 7 4 11 14 7 22
-3 11 -1 13 10 9 16 -6 18 3 33 126 3 30 10 61 14 70 9 17 22 82 45 220 9 52
20 107 25 122 5 17 4 30 -1 34 -6 4 -6 11 1 19 7 8 9 19 5 24 -3 6 -7 50 -9
98 -2 70 1 90 13 100 14 11 14 12 -1 13 -14 0 -16 9 -13 58 2 31 4 59 5 62 4
11 -2 95 -8 105 -3 5 -6 33 -5 62 0 29 -3 53 -8 53 -5 0 -9 18 -9 39 0 22 -4
43 -10 46 -5 3 -10 17 -10 31 0 14 -7 32 -16 41 -8 9 -13 22 -9 31 3 8 -1 25
-9 37 -8 12 -19 42 -26 66 -6 24 -27 78 -47 119 -19 40 -49 110 -64 155 -16
44 -38 91 -49 105 -11 14 -26 40 -34 57 -8 18 -31 54 -50 79 -20 26 -36 52
-36 59 0 7 -7 19 -16 26 -17 14 -74 128 -74 147 0 5 -7 12 -15 16 -8 3 -15 11
-15 19 0 7 -11 24 -25 37 -14 13 -25 29 -25 36 0 6 -7 15 -16 18 -8 3 -14 14
-12 23 1 12 -43 65 -125 148 -70 72 -148 151 -173 177 -26 26 -59 50 -77 54
-17 3 -44 15 -61 25 -17 10 -39 19 -48 19 -9 0 -21 6 -25 13 -4 7 -23 19 -40
26 -18 8 -33 17 -33 22 0 5 -21 20 -47 34 -68 36 -85 47 -128 84 -9 7 -49 30
-88 51 -40 20 -72 44 -72 51 0 22 37 11 71 -22 l30 -29 34 47 c23 33 35 61 36
88 1 22 5 86 9 141 4 56 3 104 -2 107 -5 3 -7 29 -5 59 7 89 3 130 -14 149
-14 16 -15 21 -4 34 11 13 10 25 -7 68 -25 65 -44 133 -47 170 -2 15 -6 30 -9
34 -4 3 -7 19 -7 34 0 15 -11 48 -24 72 -13 25 -27 58 -30 73 -4 16 -14 37
-23 46 -8 9 -12 22 -8 27 3 6 1 11 -4 11 -6 0 -11 14 -11 32 0 17 -6 39 -14
47 -8 9 -19 39 -24 66 -25 120 -45 188 -62 205 -11 11 -22 36 -26 57 -4 21
-15 55 -26 77 -11 21 -20 58 -20 82 0 25 -6 48 -14 55 -8 6 -14 19 -14 28 0 9
-4 21 -8 27 -13 14 -42 98 -57 162 -43 180 -78 272 -113 291 -9 5 -33 12 -52
15 -29 5 -40 1 -67 -23z m102 -50 c6 -21 -3 -51 -16 -51 -5 0 -9 -5 -9 -12 0
-7 -12 -29 -26 -50 -17 -24 -29 -57 -33 -93 -3 -31 -10 -56 -16 -56 -5 0 -16
21 -24 47 -11 40 -11 57 0 103 21 90 106 167 124 112z m35 -180 c0 -5 -7 -14
-15 -21 -16 -14 -18 -10 -9 14 6 17 24 22 24 7z m-20 -52 c0 -7 12 -9 35 -5
38 8 48 -6 16 -23 -10 -6 -22 -27 -26 -47 -5 -30 -2 -41 16 -60 19 -21 21 -27
11 -49 -7 -14 -12 -30 -12 -35 0 -15 26 -12 40 5 33 40 63 -11 41 -70 -13 -37
1 -85 26 -85 17 0 16 -2 -3 -44 -21 -42 -13 -66 21 -66 29 0 33 -23 10 -54
-22 -29 -18 -45 11 -56 21 -9 25 -15 20 -35 -5 -21 -2 -27 19 -35 29 -11 32
-26 8 -52 -24 -26 -6 -54 32 -50 23 3 26 0 21 -15 -4 -10 -10 -31 -13 -46 -6
-28 -5 -28 31 -22 42 8 44 4 15 -36 l-20 -29 30 0 c34 0 40 -15 16 -46 -14
-19 -20 -54 -9 -54 3 0 14 5 25 10 24 14 24 2 -1 -30 -26 -33 -26 -54 0 -47
26 7 25 -1 -1 -29 -22 -24 -18 -44 9 -44 12 0 13 -3 4 -12 -22 -22 -13 -43 26
-56 20 -7 43 -14 50 -14 23 -2 12 -17 -28 -40 -68 -39 -62 -88 11 -88 22 0 39
-3 39 -7 0 -5 -26 -20 -58 -35 -65 -30 -100 -54 -92 -62 3 -3 43 -8 88 -12 45
-4 82 -10 82 -13 0 -8 -59 -43 -95 -55 -35 -13 -39 -30 -7 -34 24 -4 31 -22 7
-22 -23 0 -18 -34 10 -64 16 -17 34 -26 55 -26 18 0 29 -4 25 -10 -3 -5 -19
-10 -36 -10 -22 0 -29 -5 -29 -19 0 -10 7 -24 15 -31 20 -16 19 -27 -4 -56
l-19 -24 -19 32 c-10 18 -37 69 -58 112 -27 54 -61 101 -107 147 -80 81 -108
92 -144 56 -14 -14 -47 -34 -72 -43 -26 -10 -54 -23 -63 -31 -21 -17 -34 -16
-50 3 -7 9 -22 20 -34 24 -11 5 -36 39 -55 77 -19 37 -44 75 -55 84 -19 16
-22 15 -67 -29 -26 -25 -54 -50 -63 -54 -16 -10 -125 -153 -125 -165 0 -5 -9
-19 -19 -32 -24 -31 -57 -21 -66 19 -4 17 -16 37 -28 45 -24 17 -11 20 27 5
46 -17 75 9 39 35 -11 8 -14 18 -8 31 4 10 7 23 6 28 -4 16 22 25 51 19 42 -8
34 7 -26 56 -30 23 -63 52 -73 63 -18 21 -18 21 27 14 24 -4 59 -18 76 -31 19
-14 39 -22 48 -19 25 9 19 22 -16 38 -31 14 -138 107 -138 120 0 13 23 5 63
-22 43 -29 151 -72 181 -72 9 0 16 7 16 15 0 8 -8 15 -19 15 -10 0 -31 7 -47
15 -43 22 -144 124 -144 146 0 10 2 19 5 19 12 0 132 -84 150 -105 11 -12 32
-25 45 -26 40 -6 31 28 -14 54 -40 22 -65 56 -32 44 26 -10 31 21 8 46 -24 26
-56 95 -71 152 -21 80 -8 88 29 18 27 -50 125 -153 144 -150 6 1 10 -9 8 -25
-7 -64 84 -12 110 63 5 14 29 41 53 59 24 18 46 39 49 47 9 22 -12 63 -33 63
-21 0 -101 -84 -101 -106 0 -17 -42 -84 -52 -84 -5 0 -8 6 -8 14 0 8 -12 22
-27 31 -31 18 -83 85 -83 107 0 7 -14 42 -31 76 -17 35 -27 67 -23 70 3 4 9 1
12 -7 2 -8 18 -28 35 -45 16 -17 41 -46 54 -63 21 -27 32 -33 63 -33 52 0 72
28 94 127 20 87 50 169 73 195 18 21 13 52 -9 56 -12 2 -20 -6 -24 -25 -4 -15
-18 -51 -30 -79 -12 -28 -27 -73 -33 -100 -15 -75 -37 -129 -55 -132 -19 -4
-20 11 -6 70 5 24 16 79 25 123 11 55 25 93 45 122 33 46 37 63 16 63 -35 0
-67 -45 -82 -115 -9 -38 -23 -75 -31 -82 -11 -9 -12 -16 -3 -32 8 -16 8 -21
-2 -21 -13 1 -63 88 -54 97 2 3 14 -5 26 -17 25 -25 44 -17 35 17 -3 14 -1 31
5 38 8 10 8 30 1 71 -14 73 -14 81 1 66 7 -7 20 -12 30 -12 16 0 17 6 12 40
-4 22 -3 40 2 40 5 0 17 15 26 33 17 32 18 86 2 136 -6 20 -4 22 13 17 43 -14
54 52 19 109 -18 28 -29 95 -17 95 5 0 16 -8 23 -17 7 -10 27 -28 45 -40 l32
-23 15 22 c9 12 16 26 16 31 0 4 7 19 16 32 17 26 34 33 34 14z m-325 -766
c30 -45 31 -53 5 -53 -14 0 -22 11 -29 38 -19 65 -13 69 24 15z m-154 -286
c30 -37 52 -77 44 -77 -14 0 -85 88 -85 104 0 15 17 3 41 -27z m232 -472 c28
-43 28 -45 11 -67 -42 -55 -204 -177 -255 -193 -13 -4 -30 -12 -37 -18 -7 -5
-14 -8 -17 -6 -12 13 131 255 172 291 26 23 76 46 88 42 5 -2 23 -24 38 -49z
m456 -47 c20 -17 41 -48 48 -67 12 -36 28 -156 17 -133 -3 6 -14 12 -23 12
-10 0 -26 9 -36 20 -10 11 -22 20 -28 20 -5 0 -26 13 -46 29 -20 15 -46 31
-58 35 -49 16 -45 31 20 74 34 22 64 41 66 41 2 1 20 -13 40 -31z m-329 -41
c0 -7 -4 -17 -10 -23 -14 -14 16 -54 40 -54 11 0 34 9 52 20 30 18 34 18 50 3
26 -23 23 -51 -6 -59 -14 -3 -56 1 -95 10 -107 25 -108 24 -114 -36 -2 -29 0
-58 5 -65 6 -8 5 -39 -3 -88 -16 -95 -13 -98 91 -89 76 7 130 25 130 46 0 6
-16 42 -36 80 -19 39 -32 73 -29 76 3 4 22 7 41 8 45 1 63 18 46 44 -23 38 31
45 77 9 13 -10 29 -19 37 -19 7 0 32 -18 55 -40 38 -35 42 -43 32 -60 -11 -16
-9 -22 14 -39 14 -12 29 -21 33 -21 5 0 17 -15 29 -32 11 -18 21 -26 21 -18 1
11 4 10 15 -4 22 -29 19 -36 -15 -36 -16 0 -30 -4 -30 -10 0 -5 10 -10 23 -10
17 -1 19 -2 7 -9 -23 -14 -160 -4 -188 12 -17 11 -84 -3 -79 -16 2 -7 17 -14
33 -18 16 -4 47 -14 68 -24 22 -9 55 -15 73 -13 18 2 33 0 33 -4 0 -4 -6 -8
-12 -8 -7 0 -53 -21 -103 -46 -90 -46 -90 -46 -215 -51 -69 -2 -151 -8 -182
-12 -40 -5 -63 -4 -80 5 -13 7 -30 13 -39 14 -9 0 -40 21 -70 48 -31 26 -71
59 -90 73 l-34 27 39 -2 c23 0 41 4 43 12 3 6 -3 12 -12 12 -21 0 -75 28 -75
39 0 5 25 3 55 -4 69 -16 189 -22 193 -10 2 5 -43 20 -100 32 -85 19 -167 45
-187 60 -9 6 34 32 53 33 22 0 56 27 56 45 0 7 13 15 29 18 15 3 48 22 72 42
24 19 60 43 79 53 34 17 53 30 114 84 33 29 66 37 66 15z m-432 -99 c-3 -7
-13 -13 -23 -13 -10 0 -20 6 -22 13 -3 7 5 12 22 12 17 0 25 -5 23 -12z m472
-163 c23 -24 29 -35 18 -35 -21 0 -68 38 -68 56 0 22 13 17 50 -21z m-530
-210 c6 -8 37 -26 68 -40 32 -15 66 -34 77 -44 62 -55 157 -90 235 -85 30 1
110 6 177 9 67 3 146 13 175 21 29 8 71 20 93 25 22 6 49 14 60 19 63 25 103
45 127 61 14 11 38 19 53 19 28 0 84 -25 100 -46 9 -11 82 -51 230 -126 22
-12 51 -29 64 -39 13 -10 27 -16 32 -14 4 3 19 -6 33 -20 14 -14 31 -25 38
-25 13 0 138 -111 138 -122 0 -10 -86 -1 -115 12 -16 7 -39 16 -50 21 -31 14
-193 49 -223 49 -16 0 -32 -4 -37 -9 -6 -5 -42 -11 -82 -13 -62 -3 -77 -8
-110 -35 -22 -17 -70 -50 -109 -73 -90 -56 -262 -228 -293 -294 -12 -27 -43
-74 -67 -104 -33 -40 -51 -76 -70 -140 -15 -48 -30 -91 -34 -97 -32 -39 -93
-257 -106 -375 -3 -36 -10 -69 -14 -75 -5 -5 -11 -37 -15 -70 -4 -33 -16 -87
-26 -120 -10 -33 -19 -72 -19 -87 0 -15 -4 -30 -10 -33 -5 -3 -10 -16 -10 -28
0 -30 -11 -43 -40 -50 -22 -5 -28 -1 -41 26 -9 18 -42 84 -73 147 -56 113 -57
116 -57 205 -1 95 -18 153 -51 174 -14 9 -21 6 -34 -14 -9 -14 -15 -35 -15
-47 1 -13 1 -55 1 -95 -1 -58 2 -75 18 -91 21 -21 92 -160 92 -181 0 -8 23
-51 50 -97 52 -86 58 -104 38 -104 -6 0 -3 -7 8 -15 11 -9 14 -14 6 -15 -17 0
-53 39 -157 170 -19 25 -49 62 -65 82 -17 20 -34 48 -39 61 -12 31 -94 140
-124 164 -12 10 -48 52 -79 94 -41 53 -57 84 -57 105 0 16 -3 51 -7 77 -6 44
-4 50 22 77 23 23 35 27 59 23 17 -3 37 -13 46 -23 18 -21 75 -35 83 -21 4 6
-7 17 -24 26 -35 18 -39 40 -9 48 11 3 23 15 26 26 3 12 14 21 24 21 43 0 29
29 -35 73 -14 10 -26 22 -26 27 0 12 37 0 51 -16 15 -18 49 -18 49 0 0 7 -9
25 -21 40 -11 14 -18 30 -15 35 7 11 -28 21 -77 21 -32 0 -38 -3 -35 -20 2
-10 -6 -26 -17 -33 -16 -13 -17 -17 -6 -31 7 -9 19 -16 25 -16 16 0 70 -49 62
-57 -3 -4 -22 -1 -41 6 -19 7 -44 10 -54 6 -23 -7 -71 -67 -71 -89 0 -8 -4
-17 -9 -20 -4 -3 -15 28 -23 69 -13 69 -13 77 3 91 9 8 33 48 54 90 29 58 45
78 73 91 l35 17 30 -35 c16 -19 45 -51 63 -71 18 -21 40 -38 48 -38 22 0 20
16 -6 40 -20 18 -21 23 -9 41 17 29 5 112 -20 135 -29 26 -35 9 -16 -44 18
-50 22 -82 9 -82 -4 0 -24 14 -45 31 -32 27 -37 36 -37 74 0 52 -8 75 -26 75
-14 0 -104 -105 -104 -122 0 -16 -48 -69 -54 -60 -3 5 -4 62 -2 127 4 118 1
145 -15 145 -9 0 -36 -54 -41 -83 -2 -14 -18 -1 -60 50 -32 37 -58 75 -58 84
0 9 -7 19 -15 23 -8 3 -15 14 -15 24 0 11 -7 25 -15 32 -8 7 -15 19 -15 28 0
13 3 12 20 -3 11 -10 20 -24 20 -30 0 -13 48 -50 56 -43 2 2 -8 37 -21 77 -14
41 -23 76 -20 79 2 3 14 -7 26 -22 11 -14 26 -32 33 -39 7 -6 28 -32 47 -57
42 -55 84 -100 93 -100 12 0 6 28 -8 39 -13 11 -56 121 -56 143 0 17 21 7 29
-15 5 -13 16 -29 25 -36 9 -7 16 -22 16 -33 0 -10 7 -21 15 -24 9 -4 32 -31
51 -60 20 -30 40 -54 45 -54 16 0 10 25 -11 48 -25 27 -41 67 -34 86 3 7 -1
20 -9 28 -20 19 -47 73 -47 93 0 8 -4 15 -9 15 -11 0 -56 109 -48 116 6 7 57
-70 57 -86 0 -15 42 -60 57 -60 7 0 20 -15 30 -32 30 -57 27 -5 -3 56 -40 81
-15 90 41 15 17 -23 42 -55 58 -72 15 -18 58 -68 95 -112 37 -43 84 -95 106
-115 21 -19 63 -58 94 -87 30 -29 59 -50 64 -47 10 6 -8 27 -137 159 -44 46
-90 96 -102 111 -12 16 -32 43 -46 59 -35 43 -48 71 -41 89 4 10 1 16 -9 16
-14 0 -27 20 -27 41 0 24 58 -18 60 -43 0 -4 11 -19 24 -33 14 -15 36 -38 49
-53 14 -15 27 -38 29 -52 2 -18 10 -26 28 -29 14 -1 37 -15 51 -30 72 -72 109
-104 115 -98 4 4 -16 34 -44 66 -29 33 -52 62 -52 66 0 4 -24 35 -53 68 -115
133 -159 204 -136 218 18 11 48 -7 59 -35 5 -13 15 -26 22 -28 8 -3 27 -25 43
-49 34 -50 162 -179 170 -171 13 14 0 35 -56 89 -70 66 -149 166 -149 188 0 8
-12 27 -26 42 -39 42 -91 149 -78 162 3 3 7 -5 11 -17 3 -13 13 -22 24 -22 11
0 24 -10 30 -23 11 -25 47 -52 57 -43 3 3 -4 16 -16 29 -11 12 -25 33 -31 47
-6 14 -18 35 -27 48 -18 24 -4 31 16 7z m-91 -131 c21 -27 29 -70 11 -59 -14
9 -50 85 -40 85 5 0 18 -12 29 -26z m-1067 -61 c8 -10 24 -34 34 -53 10 -19
25 -39 32 -43 6 -4 12 -14 12 -21 0 -6 16 -27 35 -46 19 -19 35 -43 35 -54 0
-18 -4 -16 -28 13 -44 54 -83 91 -98 91 -20 0 -17 -24 6 -45 21 -19 27 -45 10
-45 -5 0 -24 17 -42 37 -18 20 -41 45 -52 56 -10 11 -20 36 -23 56 -4 31 -1
38 24 53 35 22 37 22 55 1z m2580 -194 c46 -7 97 -25 147 -50 42 -21 83 -39
92 -39 22 0 109 -71 109 -89 0 -12 -38 -12 -75 1 -5 1 -12 -1 -14 -7 -3 -9 61
-46 139 -79 19 -8 41 -24 47 -35 11 -18 10 -23 -12 -37 -15 -10 -34 -14 -48
-10 -12 3 -36 0 -53 -6 -23 -8 -48 -7 -105 4 -45 9 -118 14 -184 12 -94 -2
-118 -6 -167 -28 -31 -14 -60 -26 -63 -26 -18 0 -84 -37 -123 -68 -40 -32
-102 -122 -102 -149 0 -7 -14 -36 -31 -65 -17 -29 -39 -73 -49 -98 -10 -25
-38 -79 -64 -120 -71 -116 -81 -138 -115 -240 -46 -141 -55 -205 -55 -425 0
-203 9 -277 51 -425 22 -80 63 -177 79 -191 8 -6 14 -23 14 -38 0 -14 9 -37
20 -51 11 -14 20 -36 20 -49 0 -24 6 -49 36 -140 8 -24 11 -47 8 -52 -3 -5 3
-21 14 -37 10 -15 24 -47 32 -72 7 -25 26 -59 42 -75 15 -17 28 -39 28 -48 0
-27 51 -97 82 -113 15 -8 28 -18 28 -23 0 -4 28 -20 63 -35 34 -15 76 -34 92
-42 56 -26 202 -45 274 -34 36 5 84 12 106 15 22 2 63 9 90 15 28 5 75 12 105
15 54 4 54 4 32 -13 -12 -9 -33 -25 -45 -35 l-22 -19 25 6 c65 15 100 18 100
8 0 -6 -29 -31 -65 -57 -75 -53 -83 -73 -27 -68 l37 4 -35 -31 c-19 -16 -38
-30 -42 -30 -5 0 -26 -11 -48 -25 -22 -14 -47 -25 -55 -25 -27 0 -95 -40 -95
-55 0 -8 3 -15 6 -15 17 0 101 24 112 33 8 7 12 5 12 -7 0 -9 -7 -16 -16 -16
-12 0 -15 -6 -11 -21 7 -28 -42 -48 -131 -55 -37 -3 -117 -12 -179 -21 -149
-21 -184 -11 -269 72 -74 73 -108 101 -145 121 -40 20 -100 62 -124 85 -36 35
-113 88 -119 82 -3 -4 -14 1 -25 11 -10 9 -22 16 -27 15 -5 -1 -18 1 -29 5
-11 4 -32 12 -47 18 -14 5 -39 23 -55 39 -15 15 -38 29 -50 29 -12 0 -29 7
-38 16 -9 10 -26 18 -38 20 -44 6 -69 13 -82 24 -7 6 -17 10 -21 9 -11 -3 -61
9 -89 21 -11 4 -42 16 -68 25 -40 14 -45 19 -33 29 33 24 -20 56 -94 56 -28 0
-70 4 -93 9 -122 27 -188 34 -200 22 -9 -9 -7 -16 12 -31 43 -31 102 -44 216
-44 61 -1 116 -5 123 -9 6 -5 12 -18 12 -30 0 -22 43 -46 112 -63 15 -3 32
-12 39 -20 6 -8 21 -14 33 -14 12 0 49 -16 82 -36 122 -75 181 -103 241 -113
45 -9 87 -27 157 -70 126 -77 131 -81 114 -98 -15 -14 -91 -18 -290 -14 -64 2
-121 0 -126 -3 -14 -8 -151 39 -224 78 -44 24 -85 38 -125 42 -68 6 -187 31
-211 43 -42 21 -93 34 -162 42 -41 5 -84 11 -96 14 -25 5 -35 -2 -28 -20 3 -8
24 -16 47 -20 23 -4 67 -15 97 -25 30 -10 77 -21 104 -24 27 -3 55 -11 63 -17
7 -7 30 -13 51 -15 116 -11 246 -48 282 -79 8 -8 49 -25 92 -39 42 -13 91 -32
109 -42 36 -18 124 -21 344 -11 130 6 199 1 218 -17 7 -6 46 -40 86 -76 87
-76 89 -76 266 -37 149 33 159 33 173 2 10 -22 8 -27 -26 -53 -41 -33 -79 -45
-192 -62 -41 -7 -86 -16 -100 -22 -76 -31 -369 -43 -434 -19 -12 5 -29 5 -37
1 -8 -5 -96 -8 -195 -7 -164 2 -183 4 -223 25 -25 12 -54 22 -66 22 -12 0 -25
3 -29 7 -4 4 -31 9 -59 10 -70 3 -161 11 -167 14 -3 1 -12 3 -20 3 -49 5 -129
20 -150 29 -14 5 -29 11 -35 12 -5 0 -21 6 -35 11 -24 10 -96 26 -184 39 -27
5 -50 18 -79 48 -22 22 -35 43 -29 45 7 2 12 8 12 13 0 17 -115 125 -172 162
-61 39 -108 85 -108 105 0 20 41 5 71 -27 35 -37 96 -74 103 -62 4 5 -39 55
-95 111 -94 95 -98 101 -67 95 42 -9 81 -29 99 -51 7 -9 33 -25 56 -35 23 -10
49 -29 59 -43 11 -18 25 -26 45 -26 16 0 29 5 29 11 0 15 -83 109 -97 109 -7
0 -16 6 -20 13 -4 7 -24 23 -44 35 -29 18 -35 27 -32 47 4 19 -7 38 -49 87
-30 35 -70 86 -88 113 -19 28 -38 53 -44 57 -8 5 -7 11 1 19 16 16 89 -43 177
-143 67 -78 79 -87 91 -68 9 14 -45 98 -67 105 -10 4 -18 10 -18 15 0 11 -91
100 -102 100 -4 0 -26 27 -48 60 -23 34 -35 60 -28 60 31 -1 99 -42 154 -94
57 -54 84 -68 84 -44 0 20 -52 88 -67 88 -8 0 -11 5 -8 10 4 6 -9 29 -29 50
-54 60 -43 85 16 35 16 -14 38 -25 49 -25 16 0 17 3 7 25 -6 14 -25 34 -43 45
-32 20 -51 41 -135 148 -48 61 -59 82 -42 82 11 0 53 -42 92 -93 19 -26 41
-46 49 -47 22 0 4 49 -32 87 -18 18 -42 51 -53 73 -12 22 -27 46 -33 54 -8 9
-8 16 -2 20 5 4 48 -32 95 -79 47 -47 90 -85 96 -85 28 0 0 52 -71 127 -97
104 -163 203 -135 203 7 0 54 -40 104 -89 101 -100 135 -126 156 -118 9 4 16
-4 20 -24 6 -31 22 -39 28 -14 2 12 10 9 36 -14 17 -16 32 -35 32 -40 0 -7
-26 -11 -65 -11 -52 0 -65 -3 -65 -15 0 -9 7 -18 15 -21 24 -10 29 -43 9 -65
-24 -26 -9 -51 36 -60 20 -4 43 -20 58 -39 17 -21 31 -30 43 -27 21 6 35 -8
19 -18 -16 -10 -12 -47 11 -84 19 -32 22 -33 62 -27 23 4 62 18 86 32 46 26
117 32 152 14 32 -18 110 -20 116 -3 9 22 -13 39 -31 24 -11 -9 -16 -9 -21 0
-5 6 -19 9 -36 5 -16 -3 -49 1 -72 8 -23 8 -67 17 -97 21 -79 9 -94 15 -81 28
10 10 58 14 220 17 64 2 57 21 -11 26 -211 17 -318 40 -303 64 3 5 12 7 20 4
7 -3 18 3 24 14 21 39 86 53 222 50 68 -2 132 -7 143 -12 14 -7 18 -6 14 4 -2
7 -25 18 -51 25 -26 7 -58 21 -70 32 -12 11 -27 22 -34 24 -18 6 -4 22 55 61
28 19 84 63 123 98 39 35 89 72 111 83 23 12 44 31 49 46 6 14 16 33 24 41 20
23 115 312 115 351 0 10 4 20 9 24 5 3 13 31 16 63 4 31 16 83 27 115 11 33
22 93 24 135 5 98 41 244 84 347 5 11 13 42 19 68 12 52 68 167 111 232 15 22
37 60 50 84 45 89 247 281 294 281 8 0 26 14 40 31 55 65 140 102 219 94 21
-1 50 1 65 5 15 5 28 9 30 9 2 1 35 -4 74 -10z m-2494 -48 c3 -8 -1 -12 -9 -9
-7 2 -15 10 -17 17 -3 8 1 12 9 9 7 -2 15 -10 17 -17z m430 -40 c3 -8 -1 -12
-9 -9 -7 2 -15 10 -17 17 -3 8 1 12 9 9 7 -2 15 -10 17 -17z m69 -73 c53 -55
133 -157 133 -170 0 -5 8 -8 19 -8 35 0 41 -21 36 -145 -2 -65 -7 -120 -10
-124 -3 -3 -29 -5 -58 -6 -57 0 -75 -16 -29 -26 62 -13 68 -32 17 -50 -57 -21
-46 -40 29 -51 30 -5 25 -23 -7 -26 -62 -7 -36 -62 30 -62 40 0 43 -16 6 -31
-91 -36 -95 -39 -82 -55 8 -9 21 -13 35 -10 27 7 74 -12 74 -30 0 -15 -23 -24
-65 -24 -62 0 -56 -43 9 -62 53 -15 62 -23 46 -43 -13 -15 -61 -19 -92 -7 -24
10 -188 163 -183 171 2 4 -6 8 -17 8 -24 2 -58 31 -58 49 0 7 -8 19 -17 26
-21 15 -58 78 -46 78 5 0 22 -16 38 -35 17 -19 35 -35 40 -35 6 0 28 -14 49
-30 67 -50 76 -34 14 24 -32 29 -58 58 -58 65 0 13 -40 74 -52 79 -10 5 -10
39 0 46 4 2 32 -18 62 -46 63 -57 90 -74 90 -58 0 21 -30 65 -75 110 -25 25
-45 48 -45 51 0 4 -13 20 -28 37 -40 43 -69 109 -55 130 15 24 27 21 75 -16
75 -57 182 -132 190 -132 18 0 6 33 -18 52 -14 11 -23 27 -20 34 3 8 -1 14 -9
14 -15 0 -32 13 -92 73 -54 53 -49 91 7 47 14 -11 31 -20 38 -20 7 0 35 -23
61 -52 37 -40 52 -50 67 -44 19 7 19 8 -1 24 -36 30 -95 105 -95 121 0 8 -7
23 -17 33 -9 10 -13 21 -9 26 4 4 13 0 19 -9 7 -9 17 -14 23 -12 11 4 64 -58
64 -74 0 -5 27 -32 60 -61 36 -32 60 -47 60 -38 0 15 -45 75 -67 89 -7 4 -13
13 -13 19 0 6 -22 39 -50 74 -27 35 -50 67 -50 70 0 4 -6 15 -14 23 -18 20
-31 71 -19 71 5 0 32 -24 60 -52z m-123 18 c3 -14 20 -39 38 -56 25 -26 29
-34 17 -41 -24 -15 -37 -10 -59 26 -12 19 -28 38 -36 43 -12 7 -12 11 2 30 20
28 30 28 38 -2z m-267 -56 c17 -22 7 -25 -22 -6 -14 9 -25 24 -25 32 0 14 2
15 18 3 9 -8 22 -21 29 -29z m80 5 c8 -23 -4 -30 -22 -12 -19 20 -19 27 0 27
9 0 18 -7 22 -15z m2409 -229 c13 3 29 2 35 -2 20 -12 69 -15 69 -4 0 11 49 3
63 -10 5 -4 27 -3 50 2 23 6 51 12 62 13 11 2 28 6 38 10 26 11 21 -5 -14 -41
-17 -18 -28 -37 -25 -43 13 -21 57 -11 88 19 16 17 34 30 39 30 16 0 -32 -58
-53 -63 -11 -3 -17 -10 -14 -15 3 -6 -6 -24 -20 -42 -15 -17 -25 -33 -22 -35
8 -8 48 7 48 19 0 27 102 90 133 82 12 -3 27 0 34 6 10 8 13 7 13 -3 0 -8 -16
-25 -35 -38 -37 -25 -49 -58 -17 -47 10 4 8 -1 -8 -14 l-25 -21 25 6 c14 3 42
13 63 22 39 17 66 9 33 -9 -10 -5 -25 -19 -35 -30 -9 -11 -26 -30 -38 -44 -47
-51 -85 -116 -75 -126 6 -6 21 6 42 36 34 47 39 49 76 47 11 -1 32 8 47 19 49
38 50 16 3 -42 -60 -74 -62 -104 -3 -58 14 11 39 20 56 20 46 0 40 -31 -15
-84 -45 -43 -50 -66 -17 -66 9 0 26 9 38 20 17 16 27 19 46 11 23 -9 23 -10
-39 -67 -60 -57 -81 -94 -44 -79 44 18 75 23 107 18 59 -10 51 -24 -29 -53
-22 -8 -26 -14 -18 -22 7 -7 15 -8 24 -1 21 16 82 10 86 -8 3 -16 -36 -39 -67
-39 -10 0 -24 -7 -31 -15 -10 -12 -1 -15 66 -17 108 -4 111 -31 10 -72 l-57
-23 38 -7 c21 -3 55 -6 76 -6 20 0 37 -4 37 -9 0 -13 -84 -81 -99 -81 -6 0
-11 -7 -11 -16 0 -12 8 -14 44 -9 47 7 86 0 86 -16 0 -6 -16 -17 -36 -25 -44
-18 -40 -36 12 -48 48 -12 46 -10 39 -28 -5 -11 -18 -14 -53 -11 -53 4 -78 -7
-69 -31 4 -11 19 -16 44 -17 21 0 47 -4 58 -9 19 -8 19 -9 -2 -9 -23 -1 -43
-27 -36 -47 2 -7 -13 -14 -38 -17 -68 -9 -72 -27 -7 -27 31 0 60 -5 63 -10 4
-6 10 -8 14 -5 5 2 16 -4 26 -15 18 -19 17 -20 -6 -21 -13 -1 -27 -1 -31 0 -5
0 -8 -6 -8 -15 0 -9 14 -21 30 -27 45 -17 37 -31 -29 -51 -96 -29 -129 -65
-42 -45 49 11 81 4 81 -16 0 -20 -49 -55 -77 -55 -13 0 -33 -5 -44 -10 -24
-13 -26 -35 -1 -25 32 14 114 17 107 4 -4 -6 -2 -15 5 -19 7 -4 10 -15 7 -24
-7 -17 -31 -29 -137 -68 -39 -14 -65 -30 -65 -38 0 -20 48 -14 89 11 37 23 86
25 86 5 0 -19 -57 -66 -79 -66 -10 0 -31 -10 -46 -22 l-28 -22 49 -13 c27 -7
59 -13 70 -13 59 0 51 -62 -14 -116 -35 -29 -114 -64 -146 -64 -7 0 -21 -10
-32 -21 -21 -24 -109 -69 -135 -69 -8 0 -47 -24 -85 -54 -88 -68 -141 -94
-234 -117 -75 -19 -90 -18 -145 5 -16 8 -44 19 -62 27 -22 9 -33 21 -35 39 -2
17 -20 36 -60 64 -50 34 -58 44 -58 72 0 17 -8 42 -18 55 -10 13 -22 31 -26
39 -4 8 -13 26 -21 40 -8 14 -12 34 -9 45 3 14 -5 30 -26 50 -29 28 -70 100
-70 125 0 5 -4 18 -9 28 -10 19 -29 105 -39 179 -11 87 -5 256 13 363 11 61
18 160 19 237 1 91 5 136 14 144 6 7 12 23 12 35 0 21 18 48 102 152 90 112
85 109 227 153 126 38 162 44 279 40 27 -1 46 -13 93 -58 47 -47 61 -68 70
-108 13 -53 34 -110 50 -135 5 -8 18 -28 29 -45 11 -16 20 -40 20 -53 0 -12 5
-30 10 -40 6 -9 17 -57 26 -107 8 -49 19 -112 25 -140 15 -78 13 -154 -5 -174
-12 -13 -16 -39 -16 -92 -1 -92 -24 -302 -39 -349 -24 -75 -99 -125 -201 -133
-112 -10 -137 7 -201 142 -12 25 -36 67 -55 94 -19 27 -34 54 -34 60 0 6 -6
18 -14 26 -9 10 -18 50 -22 96 -4 48 -13 87 -22 97 -10 13 -13 32 -10 67 4 37
0 57 -13 77 -34 52 -45 218 -18 279 42 95 92 138 179 155 30 6 62 13 72 16 9
3 39 -14 72 -41 31 -25 59 -45 62 -45 21 0 57 -63 91 -160 25 -71 21 -278 -7
-330 -6 -11 -8 -25 -5 -30 9 -14 -5 -51 -16 -45 -5 4 -9 21 -9 40 0 19 -4 36
-9 39 -4 3 -10 38 -13 78 -3 40 -10 82 -16 93 -6 11 -13 32 -16 46 -5 21 -16
29 -57 42 -32 11 -65 15 -90 11 -32 -5 -40 -12 -49 -40 -11 -33 -9 -63 11
-194 26 -169 41 -219 75 -245 48 -37 81 -35 140 8 53 38 64 56 84 142 7 28 14
59 17 70 3 11 7 72 10 135 4 108 3 121 -26 209 -17 51 -40 106 -51 121 -11 15
-20 31 -20 34 0 17 -67 97 -85 101 -95 18 -186 5 -277 -41 -37 -19 -53 -34
-65 -62 -8 -20 -26 -61 -39 -90 -31 -68 -40 -221 -16 -264 14 -24 14 -28 -2
-43 -9 -10 -15 -24 -12 -32 4 -8 9 -27 12 -41 3 -15 24 -79 46 -142 22 -63 46
-140 55 -170 17 -63 79 -194 102 -214 9 -8 38 -34 64 -59 l48 -44 80 3 c44 1
101 7 127 13 26 6 59 13 74 16 45 9 114 75 139 133 19 47 21 59 11 115 -6 34
-8 96 -6 137 7 121 4 298 -6 390 -24 203 -55 345 -86 385 -20 27 -23 37 -14
59 13 36 13 36 -10 36 -14 0 -22 10 -30 38 -5 21 -33 71 -60 110 -51 72 -93
102 -145 102 -12 0 -25 3 -29 8 -4 4 -17 8 -29 9 -12 1 -39 6 -60 11 -27 7
-52 6 -90 -4 -29 -8 -64 -14 -80 -14 -15 0 -35 -4 -45 -9 -9 -5 -31 -15 -49
-21 -28 -10 -163 -148 -163 -166 0 -4 -15 -25 -34 -48 -18 -23 -47 -71 -65
-108 -27 -60 -31 -77 -31 -157 0 -49 -10 -142 -21 -208 -28 -157 -31 -417 -6
-511 9 -35 17 -75 17 -88 0 -13 4 -32 9 -42 5 -9 14 -35 21 -57 7 -22 28 -71
46 -108 35 -69 51 -113 74 -200 7 -26 18 -51 24 -55 7 -4 26 -29 43 -57 18
-27 59 -76 92 -107 50 -47 73 -61 130 -78 77 -23 93 -24 107 -10 6 6 35 13 65
16 70 7 97 18 177 71 36 23 72 43 79 43 7 0 27 14 45 30 17 17 47 34 67 40 20
5 51 20 70 32 62 42 70 45 101 40 16 -2 30 -7 30 -11 0 -3 -17 -25 -38 -48
-60 -67 -87 -105 -87 -124 -1 -25 -6 -29 -54 -33 -72 -7 -94 -46 -25 -46 19 0
34 -3 34 -7 -1 -10 -73 -61 -125 -89 -76 -40 -193 -59 -423 -70 -121 -6 -145
-5 -188 12 -64 24 -99 45 -152 91 -95 83 -122 114 -122 137 0 15 -20 45 -52
80 -46 48 -57 69 -82 148 -16 51 -32 102 -36 113 -4 11 -20 54 -35 95 -16 41
-39 95 -51 120 -13 25 -24 52 -24 60 0 9 -4 20 -9 26 -12 13 -43 147 -52 229
-35 291 -33 421 12 600 31 125 39 146 78 210 34 56 85 157 161 320 43 92 67
125 91 125 10 0 19 4 19 9 0 5 27 20 60 33 33 12 60 26 60 31 0 13 113 60 160
66 25 4 58 3 74 -1 16 -4 40 -5 52 -2z m-2314 -480 c18 -18 42 -36 54 -40 11
-3 30 -20 42 -36 13 -17 31 -30 41 -30 25 0 146 -91 146 -110 0 -8 18 -24 39
-34 39 -19 39 -19 15 -28 -13 -5 -29 -16 -36 -24 -16 -22 -86 -29 -147 -14
-40 9 -58 10 -74 1 -12 -7 -22 -15 -22 -19 0 -14 159 -50 200 -46 53 6 52 -9
-5 -78 -25 -30 -45 -59 -45 -63 0 -4 -11 -23 -25 -41 -14 -18 -25 -40 -25 -48
0 -29 30 -16 81 34 28 28 58 50 67 50 27 -1 66 -26 53 -34 -6 -4 -9 -11 -6
-16 7 -11 55 9 55 22 0 4 7 8 16 8 14 0 15 -7 10 -41 l-7 -42 31 6 c35 7 35 8
15 -40 -19 -45 -19 -57 1 -49 14 5 15 2 9 -21 -16 -57 -12 -68 22 -71 29 -3
31 -5 21 -22 -22 -34 3 -36 33 -2 16 17 34 32 40 32 6 0 17 7 26 15 8 9 18 13
21 10 4 -3 2 -9 -4 -13 -6 -4 -20 -36 -32 -71 -21 -62 -21 -63 -2 -68 11 -3
20 -9 20 -14 0 -19 28 -8 71 28 24 20 34 26 23 12 -23 -26 -47 -129 -34 -143
4 -4 15 3 24 16 11 17 26 25 49 26 58 2 61 -12 12 -47 -26 -18 -63 -48 -83
-67 -20 -19 -40 -34 -44 -34 -4 0 -8 -10 -10 -22 -4 -32 -37 -34 -95 -7 -26
12 -57 23 -68 24 -58 9 -205 69 -205 85 0 15 11 12 46 -9 18 -11 35 -16 40
-11 6 6 26 4 49 -4 64 -22 105 -29 105 -18 0 11 -39 26 -110 41 -62 14 -200
78 -200 93 0 6 -10 22 -22 35 -27 29 -18 39 21 23 17 -7 38 -9 47 -6 13 5 9
11 -20 31 -20 14 -39 25 -42 25 -15 0 -104 66 -104 77 0 7 -18 21 -40 30 -43
19 -50 30 -24 40 16 6 76 -23 130 -64 30 -23 54 -30 54 -16 0 12 -43 53 -56
53 -7 0 -28 15 -46 33 -18 18 -53 48 -78 67 -62 48 -80 67 -80 85 0 24 20 17
57 -20 23 -23 44 -35 62 -35 l26 1 -30 24 c-16 14 -37 32 -46 40 -9 8 -20 15
-26 15 -13 0 -23 23 -23 51 0 10 -7 19 -15 19 -8 0 -15 5 -15 10 0 16 14 12
54 -15 20 -14 42 -25 49 -25 7 0 21 -7 31 -15 11 -8 26 -15 33 -15 24 0 13 26
-19 45 -49 28 -98 90 -67 83 6 -2 16 4 22 14 9 13 4 23 -22 50 -62 63 -141
161 -141 174 0 22 15 17 107 -36 48 -27 90 -47 92 -44 8 7 -60 63 -76 64 -7 0
-13 9 -13 20 0 11 -7 23 -15 26 -8 4 -15 10 -15 15 0 11 37 12 42 2 5 -13 69
-43 79 -38 13 9 -12 54 -56 99 -44 45 -71 86 -56 86 6 0 25 -15 43 -34z m505
-194 c7 -7 13 -20 13 -29 0 -13 -3 -13 -15 -3 -8 7 -15 17 -15 22 0 5 -7 16
-15 25 -8 8 -12 19 -9 25 4 6 11 3 17 -8 6 -11 17 -25 24 -32z m-7 -112 c25
-33 52 -69 60 -81 8 -11 36 -46 63 -77 26 -30 47 -59 47 -64 0 -8 63 -89 108
-138 79 -86 111 -133 102 -151 -6 -10 -10 -27 -10 -38 0 -11 -9 -22 -20 -26
-23 -7 -40 1 -40 19 0 7 -13 22 -29 34 -17 12 -38 38 -47 58 -9 20 -45 66 -78
102 -78 85 -106 125 -106 150 0 11 -11 34 -25 50 -14 17 -25 37 -25 46 0 9 -7
16 -16 16 -9 0 -28 10 -43 23 -20 17 -25 28 -20 47 17 74 22 90 28 90 3 -1 26
-28 51 -60z m82 8 c28 -34 34 -48 20 -48 -7 0 -37 35 -56 68 -15 24 9 11 36
-20z m-597 -64 c29 -25 29 -25 5 -19 -29 9 -50 24 -50 36 0 15 13 10 45 -17z
m666 -23 c14 -13 17 -21 9 -26 -13 -8 -40 12 -40 31 0 19 7 18 31 -5z m-726
-32 c10 -15 -1 -23 -20 -15 -9 3 -13 10 -10 16 8 13 22 13 30 -1z m2635 -149
c28 -1 42 -17 51 -61 5 -24 16 -75 25 -114 9 -38 17 -88 19 -110 1 -28 7 -41
19 -43 29 -6 17 -32 -31 -62 -57 -36 -90 -38 -125 -5 -22 20 -27 36 -33 92 -3
37 -11 90 -16 118 -15 77 -21 143 -14 164 6 21 36 31 70 25 11 -2 27 -4 35 -4z
m-1490 -110 c-19 -13 -30 -13 -30 0 0 6 10 10 23 10 18 0 19 -2 7 -10z m-453
-65 c-4 -8 -11 -15 -17 -15 -7 0 -7 6 0 21 13 23 26 19 17 -6z m-479 -159 c3
-12 -1 -17 -10 -14 -7 3 -15 13 -16 22 -3 12 1 17 10 14 7 -3 15 -13 16 -22z
m2226 -252 c10 -25 -1 -29 -14 -5 -6 12 -7 21 -1 21 5 0 12 -7 15 -16z m-1801
-57 c34 -15 34 -24 2 -39 -14 -6 -25 -15 -25 -20 0 -4 -13 -8 -30 -8 -20 0
-33 7 -41 23 -7 12 -29 39 -51 59 -21 21 -38 40 -38 42 0 4 143 -41 183 -57z
m87 -72 c0 -9 -6 -12 -15 -9 -8 4 -15 10 -15 15 0 5 7 9 15 9 8 0 15 -7 15
-15z m-525 -645 c14 -16 15 -20 4 -20 -16 0 -39 19 -39 32 0 14 16 9 35 -12z
m20 -346 c27 -18 34 -44 11 -44 -16 0 -66 38 -66 51 0 14 28 11 55 -7z m-51
-99 c11 -8 28 -15 38 -15 9 0 39 -13 65 -30 26 -16 54 -30 63 -30 9 0 35 -16
57 -35 23 -19 44 -35 49 -35 4 0 29 -20 55 -45 64 -60 99 -63 42 -3 -14 15
-24 30 -21 33 5 6 77 -15 233 -67 33 -11 83 -24 111 -28 28 -4 61 -13 74 -20
12 -6 43 -10 69 -7 49 4 188 -15 218 -32 10 -5 54 -17 98 -27 66 -15 126 -18
345 -17 146 0 283 5 305 11 22 6 63 13 90 16 52 7 166 33 200 46 11 4 40 12
65 19 25 6 77 20 115 32 115 34 115 34 115 12 0 -11 -9 -28 -21 -39 -22 -20
-69 -115 -69 -139 0 -13 -28 -15 -172 -17 -217 -2 -243 -4 -256 -12 -6 -3 -75
-9 -154 -11 -79 -3 -213 -10 -298 -16 -132 -9 -314 -7 -460 6 -19 2 -62 12
-95 23 -33 11 -76 22 -95 25 -19 3 -46 9 -60 13 -14 4 -47 7 -75 8 -27 1 -61
8 -74 15 -24 13 -110 29 -182 34 -20 1 -43 7 -50 13 -8 7 -27 14 -44 17 -75
14 -118 29 -157 57 -22 17 -47 30 -53 30 -7 0 -38 21 -69 46 -85 71 -70 97 29
50 28 -12 56 -30 64 -39 7 -10 19 -17 25 -17 6 0 22 -12 36 -26 33 -36 69 -58
78 -50 4 4 -5 18 -20 31 -16 13 -28 29 -28 35 0 5 -4 10 -8 10 -14 0 -131 121
-129 133 1 7 -7 11 -20 9 -28 -4 -63 14 -63 33 0 19 10 18 34 0z m2409 -296
c-6 -6 -9 -18 -6 -27 4 -8 -2 -21 -12 -28 -39 -29 -47 -9 -14 37 11 16 25 29
32 29 8 0 8 -3 0 -11z m-2343 -78 c15 -28 12 -33 -10 -19 -21 13 -27 38 -10
38 5 0 14 -9 20 -19z m190 -88 c25 -1 56 -2 68 -2 15 -1 26 -8 29 -21 3 -11
12 -20 20 -20 27 0 78 -33 114 -73 l36 -41 77 18 c81 19 104 40 85 78 -9 17
-62 38 -89 36 -41 -3 -58 3 -63 24 -16 61 48 62 273 3 36 -10 148 -24 250 -32
151 -12 220 -12 376 -3 212 12 238 15 313 25 39 5 51 4 51 -7 1 -26 49 -50 86
-43 35 6 191 -12 209 -25 6 -3 28 -7 50 -8 69 -2 88 -14 104 -68 8 -27 24 -67
37 -89 14 -25 21 -49 18 -63 -8 -29 -68 -66 -97 -59 -12 3 -30 0 -40 -8 -21
-15 -57 -9 -74 13 -10 12 -9 18 5 28 16 11 15 16 -11 63 -41 76 -37 87 21 54
26 -15 56 -35 66 -45 43 -39 48 -12 10 43 -26 38 -25 59 2 59 17 0 19 26 2 37
-7 4 -34 8 -60 9 -26 1 -62 8 -80 17 -40 18 -118 9 -147 -17 -11 -10 -24 -15
-29 -12 -5 3 -48 7 -95 10 -47 2 -94 9 -104 14 -25 14 -488 7 -568 -8 -59 -12
-80 -14 -245 -26 -47 -3 -88 -11 -91 -16 -4 -7 -19 -6 -42 1 -43 15 -137 4
-153 -17 -6 -8 -9 -37 -6 -66 3 -40 2 -49 -8 -39 -7 6 -15 26 -19 44 -4 18
-12 34 -18 36 -16 6 -21 -26 -10 -67 5 -19 7 -60 4 -90 -8 -68 1 -87 31 -69
27 17 38 6 47 -42 l7 -36 -69 0 c-144 -2 -215 -12 -260 -37 -41 -23 -44 -24
-53 -7 -5 10 -6 22 -2 26 4 3 -1 13 -11 20 -16 12 -13 13 22 8 47 -6 55 11 21
42 -19 17 -27 45 -14 45 4 0 24 -10 46 -22 29 -17 41 -19 47 -10 5 9 20 1 50
-25 37 -32 43 -34 36 -14 -4 12 -56 73 -117 134 -60 62 -114 120 -119 130 -15
27 8 21 52 -14 44 -35 49 -32 17 11 -21 30 -21 30 -2 45 18 14 18 14 -8 15
-32 0 -94 48 -80 62 28 28 242 -86 242 -128 0 -8 5 -14 10 -14 13 0 13 1 -4
41 -15 36 -87 119 -103 119 -5 0 -43 22 -84 49 -41 26 -85 52 -97 55 -12 4
-20 11 -17 16 3 5 29 -3 58 -18 28 -14 72 -27 97 -29z m2855 -123 c24 -7 17
-8 -35 -9 -70 -1 -113 7 -105 19 5 8 96 2 140 -10z m-705 -84 c9 -26 3 -66
-11 -66 -5 0 -9 20 -9 45 0 50 6 57 20 21z m-3075 -36 c-3 -5 -17 -10 -30 -10
-13 0 -27 5 -30 10 -4 6 8 10 30 10 22 0 34 -4 30 -10z m3200 -70 c-28 -12
-45 -12 -45 0 0 6 15 10 33 9 27 0 29 -2 12 -9z m370 -9 c39 -4 93 -6 120 -4
94 8 246 -5 252 -22 3 -11 -261 -11 -402 0 -44 4 -105 8 -135 9 -30 2 -64 7
-75 12 -44 20 80 22 240 5z m-3455 -1 c0 -5 -6 -10 -14 -10 -8 0 -18 5 -21 10
-3 6 3 10 14 10 12 0 21 -4 21 -10z m2988 -35 c6 -14 18 -25 26 -25 9 0 20 -9
26 -20 17 -31 -6 -25 -56 16 -48 39 -55 54 -26 54 11 0 24 -11 30 -25z m-66
-146 c9 -5 27 -9 40 -9 13 0 28 -4 34 -10 5 -5 27 -14 49 -19 39 -9 37 -9 -30
-12 -83 -3 -227 2 -237 7 -4 3 -2 18 4 35 11 31 11 31 67 24 31 -4 64 -11 73
-16z m-2603 -9 c76 -5 138 -14 145 -20 8 -9 -27 -11 -144 -6 -85 3 -168 5
-185 6 -37 0 -60 14 -50 30 5 8 23 10 54 6 25 -4 106 -11 180 -16z m3149 8 c6
-1 12 -5 12 -9 0 -10 -27 -19 -34 -12 -3 4 -27 8 -54 9 -71 4 -145 13 -151 20
-5 5 183 -2 227 -8z m156 -9 c-6 -10 -124 -9 -124 1 0 3 17 7 37 8 21 2 39 4
40 6 8 7 52 -7 47 -15z m66 1 c0 -5 -10 -10 -22 -10 -19 0 -20 2 -8 10 19 13
30 13 30 0z m175 0 c4 -6 -10 -10 -37 -9 -40 1 -41 2 -13 9 43 11 43 11 50 0z
m-515 -45 c20 -11 22 -15 9 -20 -19 -7 -69 11 -69 25 0 14 30 12 60 -5z m105
-25 c8 -13 -25 -13 -45 0 -12 8 -9 10 12 10 15 0 30 -4 33 -10z m-2539 -125
c10 -9 34 -15 64 -15 31 0 50 -5 53 -14 3 -8 29 -16 63 -21 56 -7 104 -23 104
-34 0 -6 -222 -5 -280 2 -31 4 -35 8 -38 37 -3 33 3 60 13 60 4 0 13 -7 21
-15z m-601 -55 c23 0 27 -3 15 -10 -16 -11 -142 -13 -177 -4 -46 12 -21 20 55
18 42 -2 91 -3 107 -4z"/>
<path d="M2400 6641 c0 -4 9 -20 20 -34 11 -13 27 -58 36 -98 9 -41 25 -95 35
-121 31 -77 22 -104 -18 -50 -22 30 -45 79 -62 131 -14 42 -14 41 3 41 23 0
30 20 13 37 -13 14 -16 13 -22 -6 -5 -16 -12 -20 -26 -16 -21 7 -26 -13 -10
-43 5 -9 23 -48 41 -87 17 -38 43 -84 56 -102 13 -17 24 -43 24 -57 0 -39 15
-39 48 -2 44 50 47 70 19 108 -39 52 -55 91 -62 144 -3 27 -10 53 -15 58 -6 6
-10 17 -10 25 0 17 -47 81 -61 81 -5 0 -9 -4 -9 -9z"/>
<path d="M2345 6283 c4 -10 10 -31 13 -47 3 -17 24 -58 48 -92 23 -35 45 -72
49 -83 8 -25 18 -26 35 -6 14 16 14 16 -28 90 -34 61 -103 155 -113 155 -7 0
-8 -7 -4 -17z"/>
<path d="M1490 3781 c0 -16 11 -22 55 -31 30 -6 62 -10 71 -8 47 10 -20 56
-83 57 -36 1 -43 -2 -43 -18z"/>
<path d="M2050 2744 c-20 -43 -23 -45 -39 -30 -10 9 -23 16 -29 16 -22 0 -111
-71 -142 -113 -35 -48 -38 -73 -9 -103 11 -12 22 -37 23 -55 4 -55 23 -44 60
36 32 70 37 75 56 65 25 -13 25 -37 1 -123 -20 -73 -11 -98 17 -47 27 50 52
80 67 80 10 0 10 -7 0 -37 -7 -21 -16 -53 -20 -70 -10 -49 18 -43 47 9 30 55
54 64 44 17 -6 -30 -32 -95 -57 -141 -25 -47 1 -71 29 -27 l19 31 7 -26 c5
-21 -1 -37 -25 -71 -20 -28 -29 -50 -25 -61 6 -15 8 -16 24 0 10 9 45 25 77
36 101 35 114 63 59 135 -13 17 -24 41 -24 53 0 11 -20 61 -44 109 -24 48 -52
108 -61 133 -26 68 -31 75 -54 74 -29 -1 -27 12 14 79 39 64 42 77 20 77 -8 0
-24 -21 -35 -46z"/>
<path d="M1728 2134 c-4 -4 -45 -6 -92 -5 -83 1 -83 1 -126 -37 -37 -33 -42
-42 -36 -66 6 -26 9 -27 49 -21 23 4 46 11 52 16 5 5 28 9 52 9 24 0 60 7 81
17 20 9 41 15 46 14 5 -1 16 1 25 5 33 14 155 10 193 -7 45 -20 60 -7 21 18
-15 10 -30 21 -33 24 -5 7 -47 17 -100 23 -14 2 -47 7 -75 11 -27 4 -53 3 -57
-1z"/>
<path d="M2600 693 c0 -5 15 -17 33 -28 17 -10 53 -41 79 -68 45 -47 49 -49
107 -51 65 -3 101 -23 101 -57 0 -18 -94 -79 -122 -79 -8 0 -25 9 -37 19 -12
10 -38 22 -59 26 -20 4 -41 10 -47 14 -23 18 -106 34 -117 23 -18 -18 -1 -40
51 -67 53 -26 74 -62 52 -89 -11 -13 -147 -37 -206 -37 -85 1 -129 -13 -79
-24 16 -4 53 -13 82 -20 36 -8 68 -9 100 -3 26 4 76 6 112 4 36 -2 73 -5 83
-5 33 -2 17 -21 -18 -21 -36 0 -43 -8 -24 -27 14 -14 -17 -21 -171 -38 -25 -3
-79 -12 -120 -20 -41 -8 -136 -17 -211 -19 -75 -2 -146 -9 -158 -15 -24 -13
-29 -51 -6 -51 21 0 19 -19 -2 -26 -10 -3 -31 -12 -48 -19 l-30 -14 46 0 c33
-1 49 4 53 14 3 8 15 15 26 15 12 0 35 7 52 16 19 10 66 18 122 20 50 3 114 6
141 9 28 2 113 9 190 15 77 6 183 15 235 20 97 9 321 5 700 -10 118 -5 267 -7
330 -3 148 7 351 6 513 -4 l127 -8 0 36 c0 27 -4 36 -17 36 -10 0 -22 -3 -28
-7 -5 -4 -46 -8 -90 -10 -44 -1 -107 -3 -140 -5 -189 -11 -478 -16 -538 -10
-47 5 -75 13 -87 25 -16 16 -25 17 -56 9 -20 -6 -53 -8 -73 -4 -20 4 -104 9
-187 10 -104 2 -159 8 -173 17 -12 7 -21 15 -21 18 0 3 33 3 73 0 39 -3 119
-2 177 2 191 13 444 11 659 -7 35 -3 132 -8 215 -10 97 -2 152 -8 154 -15 3
-8 8 -7 18 1 9 7 34 10 64 7 l50 -5 0 43 c0 45 -7 53 -28 32 -9 -9 -15 -9 -24
0 -7 7 -17 8 -28 2 -9 -5 -33 -5 -56 0 -41 9 -146 6 -164 -5 -6 -3 -23 0 -40
8 -21 11 -30 12 -33 4 -3 -9 -82 -13 -273 -14 -148 -1 -309 -5 -359 -7 -240
-13 -394 -16 -435 -8 l-45 8 37 13 c29 9 39 20 48 48 9 25 9 38 1 46 -6 6 -11
28 -11 48 0 34 -4 39 -45 59 -25 12 -45 25 -45 29 0 4 -18 25 -40 47 -23 21
-48 51 -56 66 -16 31 -71 58 -116 58 -17 0 -42 8 -56 19 -29 20 -112 38 -112
24z m235 -453 c3 -6 -5 -10 -19 -10 -14 0 -28 5 -31 10 -3 6 5 10 19 10 14 0
28 -4 31 -10z m150 0 c4 -6 -7 -10 -27 -10 -25 0 -29 3 -18 10 19 13 37 13 45
0z"/>
<path d="M2160 414 c0 -17 22 -14 28 4 2 7 -3 12 -12 12 -9 0 -16 -7 -16 -16z"/>
<path d="M2060 379 c-54 -13 -108 -19 -190 -18 -90 1 -122 -3 -148 -16 -18 -9
-30 -21 -26 -26 5 -9 113 -5 167 7 16 3 34 1 43 -7 14 -12 14 -14 -3 -20 -10
-4 -34 -8 -53 -9 -19 -1 -50 -7 -69 -14 -27 -10 -31 -14 -19 -24 8 -6 24 -10
36 -7 12 2 24 0 26 -4 3 -4 31 -6 63 -4 54 4 57 3 39 -11 -11 -9 -28 -16 -37
-16 -10 0 -20 -4 -23 -9 -11 -17 86 -22 306 -15 123 4 232 6 243 6 27 -2 105
20 105 30 0 4 -22 8 -49 8 -27 0 -61 4 -76 10 -19 7 -33 6 -54 -5 -32 -16 -27
-16 -189 -16 -119 0 -142 3 -142 20 0 15 97 38 217 51 85 9 103 14 103 30 0
10 -152 3 -222 -11 -46 -8 -78 -4 -78 10 0 11 75 51 94 51 9 0 16 7 16 15 0 8
-1 15 -2 14 -2 -1 -37 -10 -78 -20z m-43 -59 c1 -16 -4 -20 -27 -20 -55 0 -83
24 -37 33 50 10 63 7 64 -13z"/>
<path d="M2690 54 c-58 -7 -161 -16 -230 -19 -69 -3 -145 -8 -170 -12 -25 -3
-67 -5 -95 -4 -89 2 -99 1 -109 -9 -7 -7 395 -10 1192 -10 661 0 1202 3 1202
8 0 4 -107 7 -237 7 -131 1 -317 2 -413 4 -96 2 -303 4 -460 3 -157 -1 -318
-1 -357 -1 -40 0 -77 -2 -82 -5 -5 -3 -11 4 -14 15 -3 12 -9 19 -14 16 -19
-12 -133 -18 -133 -8 0 6 9 11 19 11 11 0 23 5 26 10 7 12 11 12 -125 -6z m48
-31 c-10 -2 -28 -2 -40 0 -13 2 -5 4 17 4 22 1 32 -1 23 -4z"/>
</g>
</svg>
